<?xml version="1.0" encoding="utf-8"?>
<!-- Generator: Adobe Illustrator 18.0.0, SVG Export Plug-In . SVG Version: 6.00 Build 0)  -->
<!DOCTYPE svg PUBLIC "-//W3C//DTD SVG 1.1//EN" "http://www.w3.org/Graphics/SVG/1.1/DTD/svg11.dtd">
<svg version="1.1" id="Calque_1" xmlns="http://www.w3.org/2000/svg" xmlns:xlink="http://www.w3.org/1999/xlink" x="0px" y="0px"
	 viewBox="0 0 300 150" style="enable-background:new 0 0 300 150;" xml:space="preserve">
<g>
	<path d="M57.2,50.9H32l-5.2,14.2H14L37.9,2.9h14l23.7,62.2H62.4L57.2,50.9z M36,39.8h17.2l-8.6-23.5L36,39.8z"/>
	<path d="M95.1,21.9h8.7v10.4h-8.7v18.1c0,3.8,1.8,5,5.1,5c1.4,0,3-0.2,3.6-0.4v9.6c-1.1,0.4-3.2,1.1-6.6,1.1
		c-8.4,0-13.7-5-13.7-13.3V32.3h-7.8V21.9h2.2c4.6,0,6.7-3,6.7-6.8V9h10.5V21.9z"/>
	<path d="M152,52.7c-2.2,7.5-9,13.7-19.6,13.7c-11.8,0-22.3-8.5-22.3-23.1c0-13.8,10.2-22.7,21.2-22.7c13.3,0,21.3,8.5,21.3,22.4
		c0,1.7-0.2,3.4-0.2,3.6h-30.9c0.3,5.7,5.1,9.8,10.9,9.8c5.4,0,8.4-2.7,9.8-6.6L152,52.7z M141.1,38.6c-0.2-4.3-3-8.5-9.6-8.5
		c-6.1,0-9.4,4.6-9.6,8.5H141.1z"/>
	<path d="M161.8,65.1V1.6h11.7v63.5H161.8z"/>
	<path d="M191.7,0.5c4,0,7.2,3.2,7.2,7.3c0,3.9-3.2,7.1-7.2,7.1c-3.9,0-7.2-3.2-7.2-7.1C184.5,3.8,187.8,0.5,191.7,0.5z M185.9,65.1
		V21.9h11.7v43.2H185.9z"/>
	<path d="M248.7,52.7c-2.2,7.5-9,13.7-19.6,13.7c-11.8,0-22.3-8.5-22.3-23.1c0-13.8,10.2-22.7,21.2-22.7c13.3,0,21.3,8.5,21.3,22.4
		c0,1.7-0.2,3.4-0.2,3.6h-30.9c0.3,5.7,5.1,9.8,10.9,9.8c5.4,0,8.4-2.7,9.8-6.6L248.7,52.7z M237.9,38.6c-0.2-4.3-3-8.5-9.6-8.5
		c-6.1,0-9.4,4.6-9.6,8.5H237.9z"/>
	<path d="M284.9,33.5c-1.3-0.3-2.5-0.4-3.5-0.4c-6,0-11.1,2.9-11.1,12.2v19.7h-11.7V21.9h11.3v6.4c2.6-5.7,8.6-6.8,12.3-6.8
		c1,0,1.8,0.1,2.7,0.2V33.5z"/>
	<path d="M0,117.1c0-19.8,15-32.5,31.7-32.5c17.2,0,26.1,10.5,28.5,20.6l-11.4,3.6c-1.5-6-6.3-12.5-17.1-12.5
		c-9.3,0-19.1,6.7-19.1,20.8c0,13.2,9.3,20.5,19.3,20.5c10.6,0,15.8-6.9,17.5-12.7l11.3,3.4c-2.4,9.6-11.3,21.1-28.8,21.1
		C14.5,149.5,0,136.9,0,117.1z"/>
	<path d="M78.9,123.3l10.6-1.6c2.5-0.4,3.2-1.6,3.2-3.1c0-3.1-2.4-5.6-7.3-5.6c-5.1,0-7.9,3.2-8.2,7l-10.4-2.2
		c0.7-6.8,6.9-14.2,18.5-14.2c13.7,0,18.8,7.7,18.8,16.4v21.2c0,2.3,0.3,5.4,0.5,6.8H93.9c-0.3-1.1-0.4-3.5-0.4-5.2
		c-2.2,3.4-6.3,6.4-12.7,6.4c-9.2,0-14.8-6.2-14.8-13C66,128.7,71.7,124.4,78.9,123.3z M92.7,130.7v-1.9l-9.7,1.5
		c-3,0.4-5.4,2.1-5.4,5.4c0,2.5,1.8,5,5.6,5C88.2,140.7,92.7,138.4,92.7,130.7z"/>
	<path d="M115.9,148.2V84.7h11.7v63.5H115.9z"/>
	<path d="M140,148.2V105h11.1v5.3c2.4-4.2,7.9-6.5,12.6-6.5c5.9,0,10.6,2.5,12.8,7.2c3.4-5.3,8-7.2,13.7-7.2c8,0,15.6,4.8,15.6,16.4
		v28h-11.3v-25.6c0-4.6-2.3-8.2-7.6-8.2c-5,0-8,3.9-8,8.5v25.3h-11.6v-25.6c0-4.6-2.4-8.2-7.6-8.2c-5.1,0-8.1,3.8-8.1,8.5v25.3H140z
		"/>
	<path d="M259.7,126.6c0,13.2-9.7,22.9-22.6,22.9c-12.9,0-22.6-9.6-22.6-22.9c0-13.3,9.7-22.9,22.6-22.9
		C250,103.7,259.7,113.3,259.7,126.6z M248.1,126.6c0-8.2-5.3-12.3-11-12.3c-5.7,0-11,4.1-11,12.3c0,8.1,5.3,12.3,11,12.3
		C242.8,138.9,248.1,134.8,248.1,126.6z"/>
	<path d="M275.3,134c0.3,3.4,2.8,6.6,7.9,6.6c3.9,0,5.7-2,5.7-4.3c0-1.9-1.3-3.5-4.6-4.2l-5.7-1.3c-8.3-1.8-12.1-6.8-12.1-12.9
		c0-7.7,6.8-14.1,16.1-14.1c12.3,0,16.4,7.8,16.9,12.5l-9.7,2.2c-0.4-2.5-2.2-5.8-7.1-5.8c-3.1,0-5.5,1.8-5.5,4.3
		c0,2.1,1.6,3.4,3.9,3.9l6.1,1.3c8.5,1.8,12.8,6.9,12.8,13.2c0,7-5.4,14.2-16.8,14.2c-13,0-17.5-8.4-18-13.3L275.3,134z"/>
</g>
</svg>
